inDegrees=no
DataType=double
version=3
OpenSimVersion=4.4-2022-10-11-798caa840
endheader
time	elv_angle	shoulder_elv	shoulder_rot	elbow_flexion	pro_sup	deviation	flexion
1.2010425717	0.0783617049	0.5607174779	-0.0247458016	1.5501748255	0.0000000000	0.0000000000	0.0000000000
1.2052128584	0.0794416373	0.5612290248	-0.0250868328	1.5498906328	0.0000000000	0.0000000000	0.0000000000
1.2093831451	0.0805273983	0.5617433327	-0.0254297047	1.5496049062	0.0000000000	0.0000000000	0.0000000000
1.2135534318	0.0816189207	0.5622603696	-0.0257743960	1.5493176635	0.0000000000	0.0000000000	0.0000000000
1.2177237185	0.0827161364	0.5627801034	-0.0261208852	1.5490289225	0.0000000000	0.0000000000	0.0000000000
1.2218940052	0.0838189768	0.5633025014	-0.0264691506	1.5487387013	0.0000000000	0.0000000000	0.0000000000
1.2260642919	0.0849273727	0.5638275311	-0.0268191703	1.5484470182	0.0000000000	0.0000000000	0.0000000000
1.2302345786	0.0860412541	0.5643551591	-0.0271709224	1.5481538915	0.0000000000	0.0000000000	0.0000000000
1.2344048653	0.0871605506	0.5648853522	-0.0275243844	1.5478593398	0.0000000000	0.0000000000	0.0000000000
1.2385751520	0.0882851910	0.5654180766	-0.0278795340	1.5475633818	0.0000000000	0.0000000000	0.0000000000
1.2427454387	0.0894151036	0.5659532983	-0.0282363485	1.5472660364	0.0000000000	0.0000000000	0.0000000000
1.2469157255	0.0905502160	0.5664909832	-0.0285948051	1.5469673226	0.0000000000	0.0000000000	0.0000000000
1.2510860122	0.0916904554	0.5670310966	-0.0289548807	1.5466672596	0.0000000000	0.0000000000	0.0000000000
1.2552562989	0.0928357483	0.5675736038	-0.0293165521	1.5463658667	0.0000000000	0.0000000000	0.0000000000
1.2594265856	0.0939860207	0.5681184696	-0.0296797960	1.5460631635	0.0000000000	0.0000000000	0.0000000000
1.2635968723	0.0951411979	0.5686656588	-0.0300445888	1.5457591694	0.0000000000	0.0000000000	0.0000000000
1.2677671590	0.0963012048	0.5692151358	-0.0304109068	1.5454539045	0.0000000000	0.0000000000	0.0000000000
1.2719374457	0.0974659658	0.5697668647	-0.0307787260	1.5451473884	0.0000000000	0.0000000000	0.0000000000
1.2761077324	0.0986354046	0.5703208094	-0.0311480225	1.5448396414	0.0000000000	0.0000000000	0.0000000000
1.2802780191	0.0998094446	0.5708769336	-0.0315187720	1.5445306835	0.0000000000	0.0000000000	0.0000000000
1.2844483058	0.1009880085	0.5714352007	-0.0318909500	1.5442205351	0.0000000000	0.0000000000	0.0000000000
1.2886185925	0.1021710185	0.5719955739	-0.0322645322	1.5439092167	0.0000000000	0.0000000000	0.0000000000
1.2927888792	0.1033583966	0.5725580161	-0.0326394937	1.5435967487	0.0000000000	0.0000000000	0.0000000000
1.2969591659	0.1045500640	0.5731224901	-0.0330158097	1.5432831521	0.0000000000	0.0000000000	0.0000000000
1.3011294526	0.1057459415	0.5736889584	-0.0333934552	1.5429684474	0.0000000000	0.0000000000	0.0000000000
1.3052997394	0.1069459496	0.5742573833	-0.0337724051	1.5426526558	0.0000000000	0.0000000000	0.0000000000
1.3094700261	0.1081500082	0.5748277268	-0.0341526342	1.5423357983	0.0000000000	0.0000000000	0.0000000000
1.3136403128	0.1093580367	0.5753999509	-0.0345341169	1.5420178961	0.0000000000	0.0000000000	0.0000000000
1.3178105995	0.1105699543	0.5759740171	-0.0349168277	1.5416989704	0.0000000000	0.0000000000	0.0000000000
1.3219808862	0.1117856796	0.5765498870	-0.0353007409	1.5413790427	0.0000000000	0.0000000000	0.0000000000
1.3261511729	0.1130051308	0.5771275218	-0.0356858308	1.5410581345	0.0000000000	0.0000000000	0.0000000000
1.3303214596	0.1142282258	0.5777068826	-0.0360720713	1.5407362674	0.0000000000	0.0000000000	0.0000000000
1.3344917463	0.1154548820	0.5782879302	-0.0364594364	1.5404134631	0.0000000000	0.0000000000	0.0000000000
1.3386620330	0.1166850165	0.5788706255	-0.0368478999	1.5400897435	0.0000000000	0.0000000000	0.0000000000
1.3428323197	0.1179185459	0.5794549289	-0.0372374355	1.5397651305	0.0000000000	0.0000000000	0.0000000000
1.3470026064	0.1191553865	0.5800408008	-0.0376280168	1.5394396461	0.0000000000	0.0000000000	0.0000000000
1.3511728931	0.1203954544	0.5806282014	-0.0380196172	1.5391133125	0.0000000000	0.0000000000	0.0000000000
1.3553431798	0.1216386651	0.5812170907	-0.0384122100	1.5387861518	0.0000000000	0.0000000000	0.0000000000
